<svg id="Capa_1" enable-background="new 0 0 510 510" viewBox="0 0 510 510" xmlns="http://www.w3.org/2000/svg"><g><path d="m390 510h-270v-375c0-74.439 60.561-135 135-135s135 60.561 135 135v30h-105v-30c0-16.542-13.458-30-30-30s-30 13.458-30 30v41.167c0 18.34 16.028 33.833 35 33.833h130zm-240-30h210v-240h-100c-17.03 0-33.206-6.579-45.547-18.525-12.544-12.144-19.453-28.235-19.453-45.308v-41.167c0-33.084 26.916-60 60-60s60 26.916 60 60h45c0-57.897-47.103-105-105-105s-105 47.103-105 105z"/><path d="m240.104 408.773-50.292-45.529 20.135-22.24 29.709 26.897 59.916-56.674 20.615 21.794z"/></g></svg>