<?xml version="1.0" ?><svg enable-background="new 0 0 512 512" id="Layer_2" version="1.1" viewBox="0 0 512 512" xml:space="preserve" xmlns="http://www.w3.org/2000/svg" xmlns:xlink="http://www.w3.org/1999/xlink"><g><g><polygon fill="none" points="    115.507,455.786 26.231,455.786 19.11,425.553 19.11,328.255 26.231,298.24 115.507,298.24 122.628,328.255 122.628,425.553   " stroke="#474747" stroke-linecap="round" stroke-linejoin="round" stroke-miterlimit="10" stroke-width="15"/><line fill="none" stroke="#474747" stroke-linecap="round" stroke-linejoin="round" stroke-miterlimit="10" stroke-width="15" x1="19.404" x2="98.177" y1="328.255" y2="328.255"/><line fill="none" stroke="#474747" stroke-linecap="round" stroke-linejoin="round" stroke-miterlimit="10" stroke-width="15" x1="19.404" x2="98.177" y1="425.553" y2="425.553"/></g><g><polygon fill="none" points="    361.278,455.786 272.002,455.786 264.881,425.553 264.881,328.255 272.002,298.24 361.278,298.24 368.399,328.255     368.399,425.553   " stroke="#474747" stroke-linecap="round" stroke-linejoin="round" stroke-miterlimit="10" stroke-width="15"/><line fill="none" stroke="#474747" stroke-linecap="round" stroke-linejoin="round" stroke-miterlimit="10" stroke-width="15" x1="265.175" x2="343.948" y1="328.255" y2="328.255"/><line fill="none" stroke="#474747" stroke-linecap="round" stroke-linejoin="round" stroke-miterlimit="10" stroke-width="15" x1="265.175" x2="343.948" y1="425.553" y2="425.553"/></g><line fill="none" stroke="#474747" stroke-linecap="round" stroke-linejoin="round" stroke-miterlimit="10" stroke-width="15" x1="122.628" x2="263.075" y1="357.367" y2="357.367"/><line fill="none" stroke="#474747" stroke-linecap="round" stroke-linejoin="round" stroke-miterlimit="10" stroke-width="15" x1="122.628" x2="263.075" y1="397.279" y2="397.279"/><path d="   M158.877,324.262c-1.925-10.129-2.933-20.583-2.933-31.273c0-61.197,33.021-114.682,82.218-143.608" fill="none" stroke="#474747" stroke-linecap="round" stroke-linejoin="round" stroke-miterlimit="10" stroke-width="15"/><path d="   M406.773,149.44c49.141,28.94,82.117,82.393,82.117,143.549c0,65.961-38.362,122.962-93.993,149.909" fill="none" stroke="#474747" stroke-linecap="round" stroke-linejoin="round" stroke-miterlimit="10" stroke-width="15"/><path d="   M454.235,295.369c0,39.653-17.508,75.216-45.216,99.381" fill="none" stroke="#474747" stroke-linecap="round" stroke-linejoin="round" stroke-miterlimit="10" stroke-width="15"/><path d="   M278.029,132.499c14.132-3.9,29.017-5.983,44.388-5.983c7.144,0,14.182,0.45,21.089,1.323" fill="none" stroke="#474747" stroke-linecap="round" stroke-linejoin="round" stroke-miterlimit="10" stroke-width="15"/><path d="   M236.817,166.427l16.272-91.818c3.515-19.498,20.485-33.682,40.296-33.682h58.064c19.812,0,36.782,14.184,40.296,33.682   l16.272,91.818" fill="none" stroke="#474747" stroke-linecap="round" stroke-linejoin="round" stroke-miterlimit="10" stroke-width="15"/><path d="   M272.002,157.921l11.72-65.017c1.962-10.882,11.433-18.799,22.491-18.799h32.408c11.058,0,20.529,7.917,22.491,18.799l11.72,65.017   " fill="none" stroke="#474747" stroke-linecap="round" stroke-linejoin="round" stroke-miterlimit="10" stroke-width="15"/></g></svg>