<?xml version="1.0" ?><svg id="Layer_1" style="enable-background:new 0 0 64 64;" version="1.1" viewBox="0 0 64 64" xml:space="preserve" xmlns="http://www.w3.org/2000/svg" xmlns:xlink="http://www.w3.org/1999/xlink"><style type="text/css">
	.st0{fill:none;stroke:#58595B;stroke-width:2;stroke-linejoin:round;stroke-miterlimit:10;}
	.st1{fill:none;stroke:#58595B;stroke-width:2;stroke-linecap:round;stroke-linejoin:round;stroke-miterlimit:10;}
	.st2{fill:#58595B;stroke:#58595B;stroke-linejoin:round;stroke-miterlimit:10;}
	.st3{fill:#FFFFFF;stroke:#58595B;stroke-linejoin:round;stroke-miterlimit:10;}
	.st4{fill:none;stroke:#58595B;stroke-linejoin:round;stroke-miterlimit:10;}
	.st5{fill:none;stroke:#58595B;stroke-linecap:round;stroke-linejoin:round;stroke-miterlimit:10;}
	.st6{fill:#79C9DB;stroke:#58595B;stroke-linejoin:round;stroke-miterlimit:10;}
	.st7{fill:#58595B;stroke:#58595B;stroke-width:2;stroke-linejoin:round;stroke-miterlimit:10;}
	.st8{fill:#FFFFFF;stroke:#58595B;stroke-width:2;stroke-linejoin:round;stroke-miterlimit:10;}
	.st9{fill:#58595B;stroke:#58595B;stroke-width:2;stroke-linecap:round;stroke-linejoin:round;stroke-miterlimit:10;}
	.st10{fill:none;stroke:#FFFFFF;stroke-width:1.5;stroke-linecap:round;stroke-linejoin:round;stroke-miterlimit:10;}
	.st11{fill:#58595B;stroke:#58595B;stroke-miterlimit:10;}
	.st12{fill:#FFDFA6;stroke:#58595B;stroke-linejoin:round;stroke-miterlimit:10;}
	.st13{fill:#79C9DB;}
	.st14{fill:#FFFFFF;}
	.st15{fill:none;stroke:#58595B;stroke-width:2;stroke-miterlimit:10;}
	.st16{fill:none;stroke:#58595B;stroke-width:2;stroke-linecap:round;stroke-miterlimit:10;}
	.st17{fill:#FFFFFF;stroke:#58595B;stroke-width:2;stroke-miterlimit:10;}
	.st18{fill:#58595B;}
	.st19{fill:#58595B;stroke:#58595B;stroke-width:2;stroke-miterlimit:10;}
	.st20{fill:#DDDDDD;stroke:#58595B;stroke-miterlimit:10;}
	.st21{fill:#FFFFFF;stroke:#58595B;stroke-miterlimit:10;}
	.st22{fill:none;stroke:#58595B;stroke-miterlimit:10;}
	.st23{fill:none;stroke:#58595B;stroke-linecap:round;stroke-miterlimit:10;}
	.st24{fill:#FFFFFF;stroke:#58595B;stroke-width:2;stroke-linecap:round;stroke-linejoin:round;stroke-miterlimit:10;}
	.st25{fill:#FFFFFF;stroke:#58595B;stroke-linecap:round;stroke-linejoin:round;stroke-miterlimit:10;}
	.st26{fill:#FFFFFF;stroke:#58595B;stroke-width:2;stroke-linecap:round;stroke-miterlimit:10;}
	.st27{fill:#DDDDDD;stroke:#58595B;stroke-linejoin:round;stroke-miterlimit:10;}
	.st28{fill:#FFFFFF;stroke:#58595B;stroke-linecap:round;stroke-miterlimit:10;}
	.st29{fill:#58595B;stroke:#58595B;stroke-linecap:round;stroke-miterlimit:10;}
</style><g><g><path class="st8" d="M5.0001001,33.2274208V21.5592823c0-0.3903942,0.0780997-0.7768917,0.2296-1.1367245l3.5361996-8.3954906    c0.7730007-1.8352156,2.5599003-3.026967,4.5385008-3.026967H59v19.2529831c0,2.7433357-2.2070007,4.9673443-4.9295807,4.9676456    L5.0001001,33.2274208z"/><path class="st0" d="M11.4506998,26.0661259H5v-4.5068436c0-0.3902931,0.0781002-0.7767906,0.2297001-1.1366234    l3.5361996-8.3955917C9.5389004,10.1918516,11.3257999,9,13.3044004,9H59v13.1742821H17.5214996L11.4506998,26.0661259z"/><path class="st24" d="M43.3961983,32.7409515c0,2.3321724,1.8931007,4.2227135,4.228302,4.2227135    s4.228199-1.8905411,4.228199-4.2227135c0-2.3321686-1.8929977-4.2228127-4.228199-4.2228127    S43.3961983,30.408783,43.3961983,32.7409515z"/><path class="st24" d="M12.9349003,32.7409515c0,2.3321724,1.8929996,4.2227135,4.228199,4.2227135    s4.2283001-1.8905411,4.2283001-4.2227135c0-2.3321686-1.8930988-4.2228127-4.2283001-4.2228127    S12.9349003,30.408783,12.9349003,32.7409515z"/><line class="st0" x1="17.5214996" x2="17.5214996" y1="22.1742821" y2="9.0001001"/><line class="st0" x1="28.1609993" x2="28.1609993" y1="22.1742821" y2="9.0001001"/><line class="st0" x1="38.800499" x2="38.800499" y1="22.1742821" y2="9.0001001"/><line class="st0" x1="49.4398994" x2="49.4398994" y1="22.1742821" y2="9.0001001"/><rect class="st0" height="11.0500422" transform="matrix(-1 -4.513513e-11 4.513513e-11 -1 66.9615021 55.3986092)" width="10.6394997" x="28.1609993" y="22.1742821"/><line class="st1" x1="8.3038998" x2="5.0001001" y1="29.6647491" y2="29.6647491"/></g><g><polyline class="st1" points="9.0001431,46.0116768 5.0001435,43.1999779 9.0001431,40.3882751   "/><line class="st1" x1="5.0001435" x2="53.2394066" y1="43.1999779" y2="43.143959"/></g><g><polyline class="st1" points="54.999958,55 58.999958,52.1882973 54.999958,49.3765945   "/><line class="st1" x1="58.999958" x2="10.7606926" y1="52.1882973" y2="52.1322823"/></g></g></svg>