<?xml version="1.0" ?><!DOCTYPE svg  PUBLIC '-//W3C//DTD SVG 1.1//EN'  'http://www.w3.org/Graphics/SVG/1.1/DTD/svg11.dtd'><svg enable-background="new 0 0 85 85" height="85px" id="Layer_1" version="1.1" viewBox="0 0 85 85" width="85px" xml:space="preserve" xmlns="http://www.w3.org/2000/svg" xmlns:xlink="http://www.w3.org/1999/xlink"><g><line fill="none" stroke="#394553" stroke-miterlimit="10" stroke-width="2.5" x1="60.22" x2="73.535" y1="63.986" y2="63.986"/><g><path d="M37.191,36.579v-7.642h33.697V50.68    c0,3.852-3.15,7-7,7h-6.671" fill="none" stroke="#394553" stroke-miterlimit="10" stroke-width="2.5"/></g><path d="   M47.568,23.003c2.178-1.669,2.316-3.877,0.477-5.62l0.009,0.004c-1.798-1.738-1.616-3.871,0.545-5.526" fill="none" stroke="#394553" stroke-linecap="round" stroke-linejoin="round" stroke-miterlimit="10" stroke-width="2.5"/><path d="M16.006,47.561   c-1.936,0.369-4.207,1.23-5.857,3.172c0,0-1.848,1.949-1.949,3.799c0,0-0.205,2.053,1.949,4.518l11.805,10.365   c0,0,3.463,2.666,5.928-1.029" fill="none" stroke="#394553" stroke-miterlimit="10" stroke-width="2.5"/><path d="M33.32,68.385   c2.463,3.695,5.928,1.029,5.928,1.029l11.803-10.365c2.156-2.465,1.951-4.518,1.951-4.518c-0.104-1.85-1.951-3.799-1.951-3.799   c-3.488-4.104-9.75-3.385-9.75-3.385l-0.584,0.141" fill="none" stroke="#394553" stroke-miterlimit="10" stroke-width="2.5"/><path d="M51.779,58.488l0.504,0.561   c0,0,4.414,4.924,4.619,9.441c0,0,0.615,4.002-2.465,4.516c0,0-5.275,1.293-12.973-4.146l-0.691-0.49" fill="none" stroke="#394553" stroke-miterlimit="10" stroke-width="2.5"/><path d="M30.756,39.859   c1.659,0.043,7.373,0.479,9.295,4.408c0,0,1.131,2.875-0.307,6.877l-7.082,18.68c0,0-0.469,1.547-2.092,1.637h-0.005   c-1.623-0.09-2.006-1.637-2.006-1.637l-7.082-18.68c-1.438-4.002-0.307-6.877-0.307-6.877c1.922-3.93,7.636-4.365,9.294-4.408   H30.756z" fill="none" stroke="#394553" stroke-miterlimit="10" stroke-width="2.5"/><path d="   M57.746,23.003c2.178-1.669,2.317-3.877,0.477-5.62l0.01,0.004c-1.799-1.738-1.617-3.871,0.545-5.526" fill="none" stroke="#394553" stroke-linecap="round" stroke-linejoin="round" stroke-miterlimit="10" stroke-width="2.5"/><path d="M70.936,36.116   c0.945-0.49,2.033-0.769,3.19-0.769c3.646,0,6.601,2.765,6.601,6.174c0,3.41-2.954,6.178-6.601,6.178   c-1.149,0-2.229-0.275-3.171-0.76" fill="none" stroke="#394553" stroke-miterlimit="10" stroke-width="2.5"/><path d="M9.447,58.488l-0.504,0.561   c0,0-4.415,4.924-4.62,9.441c0,0-0.615,4.002,2.465,4.516c0,0,5.276,1.293,12.973-4.146l0.691-0.49" fill="none" stroke="#394553" stroke-miterlimit="10" stroke-width="2.5"/></g></svg>