<svg id="Capa_1" enable-background="new 0 0 512 512" viewBox="0 0 512 512" xmlns="http://www.w3.org/2000/svg"><g><path d="m120.778 147.047h-36c-4.142 0-7.5 3.358-7.5 7.5s3.358 7.5 7.5 7.5h19.096v13.019c0 4.142 3.358 7.5 7.5 7.5s7.5-3.358 7.5-7.5v-13.019h1.904c13.646 0 24.748-11.108 24.748-24.761 0-13.669-11.052-24.789-24.637-24.789h-18.862c-5.375 0-9.749-4.379-9.749-9.761 0-5.383 4.373-9.762 9.749-9.762h35.999c4.142 0 7.5-3.358 7.5-7.5s-3.358-7.5-7.5-7.5h-19.124v-13.018c0-4.142-3.358-7.5-7.5-7.5s-7.5 3.358-7.5 7.5v13.018h-1.875c-13.646 0-24.749 11.108-24.749 24.761s11.102 24.761 24.749 24.761h18.862c5.224 0 9.638 4.483 9.638 9.789-.001 5.383-4.374 9.762-9.749 9.762z"/><path d="m81.55 285.992h222.452c4.142 0 7.5-3.358 7.5-7.5s-3.358-7.5-7.5-7.5h-222.452c-4.142 0-7.5 3.358-7.5 7.5.001 4.142 3.358 7.5 7.5 7.5z"/><path d="m74.051 229.688c0 4.142 3.358 7.5 7.5 7.5h222.452c4.142 0 7.5-3.358 7.5-7.5s-3.358-7.5-7.5-7.5h-222.453c-4.142 0-7.499 3.358-7.499 7.5z"/><path d="m81.55 334.768h181.89c4.142 0 7.5-3.358 7.5-7.5s-3.358-7.5-7.5-7.5h-181.89c-4.142 0-7.5 3.358-7.5 7.5.001 4.142 3.358 7.5 7.5 7.5z"/><path d="m499.641 102.704-24.975-7.459 4.499-15.068c1.27-4.2.81-8.64-1.28-12.51-.82-1.53-1.86-2.89-3.07-4.05l8.34-27.849c4.35-14.7-4.04-30.219-18.7-34.599-7.09-2.12-14.6-1.34-21.15 2.2-6.53 3.54-11.3 9.39-13.42 16.48l-8.34 27.869c-5.81 1.11-10.86 5.35-12.7 11.42l-7.18 24.05-71.049-67.799-1.08-1.05c-1.335-1.292-2.6-2.473-4.05-3.386-.16-.112-.326-.215-.495-.314-.022-.012-.041-.028-.063-.04-.006-.003-.012-.006-.018-.009-.169-.097-.343-.185-.52-.268-.018-.009-.036-.019-.054-.028-.008-.004-.018-.007-.026-.011-.152-.07-.306-.133-.463-.192-1.243-.523-2.648-.852-4.381-.852h-298.393c-7.76 0-14.07 6.32-14.07 14.1v474.561c0 7.78 6.31 14.1 14.07 14.1h62.589c4.15 0 7.5-3.36 7.5-7.5s-3.35-7.5-7.5-7.5h-61.659v-472.761h291.685l-.047 42.388c0 18.719 15.22 33.948 33.929 33.948h46.106v9.382l-75.469 252.805c-.01.04-.02.08-.03.12-.05.18-.09.36-.13.54-.03.14-.05.28-.07.42-.03.19-.05.37-.06.56-.01.17-.02.34-.02.5s.01.32.02.48c.01.11.02.23.03.34v.02l7.12 63.289.001.007c-2.817-1.874-4.988-5.097-7.539-9.26-3.155-5.147-7.467-12.196-15.701-10.623-6.949 1.316-10.211 7.122-13.365 12.737-1.642 2.922-3.339 5.944-5.705 8.946-1.753 2.223-2.934 2.853-3.313 2.875-.311.026-2.031-.138-6.933-5.025-12.88-12.803-22.898-4.077-27.712.115-1.794 1.563-3.828 3.333-5.159 3.572-1.245.226-3.554-1.082-6.171-3.494-3.047-2.807-7.791-2.613-10.598.433s-2.613 7.791.433 10.598c15.344 14.138 26.151 4.725 31.345.202 1.27-1.105 3.395-2.957 4.124-3.093.01.001 1.032.186 3.155 2.297 4.69 4.676 10.406 9.396 17.462 9.396.313 0 .628-.009.945-.028 5.184-.309 9.962-3.188 14.2-8.56 3.092-3.923 5.262-7.785 7.005-10.888.618-1.101 1.357-2.416 2.035-3.499.401.631.808 1.294 1.165 1.877 4.228 6.899 12.051 19.643 29.473 18.119.08-.001.161 0 .234-.015.42-.01.81-.06 1.19-.15.043-.005.087-.017.13-.027.003-.001.007-.001.01-.002.033-.008.067-.013.1-.021.06-.01.12-.03.18-.05.048-.012.093-.028.141-.042 1.166-.323 2.205-.914 3.059-1.7.003-.003.007-.005.011-.008.03-.02.05-.04.07-.06.71-.6 1.27-1.2 1.66-1.64l.21-.24 22.13-26.65 23.78-28.71c.03-.04.06-.08.09-.12.13-.15.25-.31.36-.48.04-.06.07-.11.11-.17.09-.15.18-.3.27-.46.02-.03.04-.07.05-.11.1-.17.18-.35.25-.54.03-.05.05-.1.06-.15.06-.13.11-.26.15-.4.03-.07.05-.14.07-.21l5.15-17.25v130.47h-276.628c-4.14 0-7.5 3.36-7.5 7.5s3.36 7.5 7.5 7.5h277.535c7.77 0 14.09-6.32 14.09-14.1v-181.596l17.02-56.989c1.19-3.97-1.07-8.15-5.04-9.33-3.97-1.19-8.15 1.07-9.33 5.04l-2.65 8.87-15 50.239-17.37 58.169-41.579-12.43 58.949-197.466 15-50.239 14.54-48.709c.22-.73 1.04-1.19 1.74-.98l38.899 11.64c.01 0 .01 0 .02.01.44.13.69.43.81.67.13.23.25.6.11 1.07l-6.64 22.23-.02.09-37.049 124.098c-1.18 3.96 1.08 8.14 5.05 9.33 3.97 1.18 8.14-1.07 9.33-5.04l34.909-116.957 17.789 5.313-30.489 102.172c-1.184 3.969 1.073 8.147 5.042 9.331.715.213 1.437.315 2.147.315 3.23 0 6.213-2.103 7.184-5.357l32.633-109.357c1.185-3.97-1.072-8.147-5.04-9.333zm-160.424 317.988-5.1-45.339 34.219 10.23zm-10.576-354.057.036-32.377.001.001 53.766 51.316h-34.874c-10.438 0-18.929-8.5-18.929-18.94zm107.805-16.377 7.81-26.11c.97-3.26 3.17-5.95 6.19-7.58 3.02-1.64 6.46-2 9.71-1.03 6.76 2.02 10.62 9.19 8.62 15.95l-7.81 26.11z"/><path d="m81.55 383.572h60.732c4.142 0 7.5-3.358 7.5-7.5s-3.358-7.5-7.5-7.5h-60.732c-4.142 0-7.5 3.358-7.5 7.5.001 4.142 3.358 7.5 7.5 7.5z"/></g></svg>