<?xml version="1.0" ?><svg id="Line" style="enable-background:new 0 0 128 128;" version="1.1" viewBox="0 0 128 128" xml:space="preserve" xmlns="http://www.w3.org/2000/svg" xmlns:xlink="http://www.w3.org/1999/xlink"><g><path d="M3,33h46c1.103,0,2-0.897,2-2v-2c0-1.103-0.897-2-2-2V6c0-1.103-0.897-2-2-2h-4c-1.103,0-2,0.897-2,2v1h-4V5   c0-1.103-0.897-2-2-2h-4c-1.103,0-2,0.897-2,2h-4c-1.103,0-2,0.897-2,2v20h-3c0-0.001,0-0.001,0-0.002v-3.996   c0-1.088-0.873-1.971-1.955-1.997c0.11-1.601,0.495-4.849,1.849-7.557c0.155-0.31,0.138-0.678-0.044-0.973   C19.668,12.18,19.347,12,19,12c-0.135,0-2.008,0.043-3.991,1.862c-0.542-2.386-1.28-4.224-2.209-5.463   c-0.378-0.504-1.222-0.504-1.6,0c-0.93,1.239-1.668,3.077-2.209,5.462C7.007,12.043,5.135,12,5,12c-0.347,0-0.668,0.18-0.851,0.474   c-0.182,0.295-0.199,0.663-0.044,0.973c1.355,2.709,1.739,5.956,1.849,7.557C4.873,21.031,4,21.914,4,23.002v3.996   C4,26.999,4,26.999,4,27H3c-1.103,0-2,0.897-2,2v2C1,32.103,1.897,33,3,33z M43,27V13h4v14H43z M37,27v-3h4v3H37z M31,27V15h4v12   H31z M25,19h4v2h-4V19z M41,22h-4v-2h4V22z M35,13h-4v-2h4V13z M47,6v5h-4V6H47z M41,9v9h-4V9H41z M35,5v4h-4V5H35z M29,7v10h-4V7   H29z M25,23h4v4h-4V23z M17.241,14.641c-0.855,2.517-1.121,5.017-1.203,6.359h-2.754c0.534-1.91,1.206-3.301,1.902-4.311   c0.03-0.037,0.054-0.076,0.079-0.117C15.943,15.619,16.637,15.019,17.241,14.641z M12,10.989c0.561,1.232,1.021,2.885,1.362,4.86   c-0.484,0.744-0.948,1.617-1.362,2.678c-0.415-1.06-0.878-1.934-1.362-2.678C10.979,13.874,11.438,12.221,12,10.989z M8.736,16.574   c0.024,0.04,0.047,0.078,0.077,0.114c0.697,1.009,1.369,2.401,1.903,4.312H7.962c-0.083-1.342-0.348-3.841-1.202-6.356   C7.364,15.022,8.059,15.622,8.736,16.574z M6,26.998L6.002,23L18,23.002L17.996,27H6.01C6.006,27,6.003,26.998,6,26.998z M3,29h46   l-0.003,2H3V29z"/><path d="M125.002,12H99c-1.102,0-1.998,0.896-1.998,1.998v23.004C97.002,38.104,97.898,39,99,39h26.002   c1.102,0,1.998-0.896,1.998-1.998V13.998C127,12.896,126.104,12,125.002,12z M124.998,37l-25.996,0.002L99,14l26-0.002L124.998,37z   "/><path d="M102,35h20c0.552,0,1-0.448,1-1V17c0-0.552-0.448-1-1-1h-20c-0.552,0-1,0.448-1,1v17C101,34.552,101.448,35,102,35z    M103,33v-3.63l5.057-5.899l5.236,5.236c0.351,0.352,0.909,0.392,1.307,0.093l3.306-2.479L121,29.414V33H103z M121,18v8.586   l-2.293-2.293c-0.352-0.352-0.909-0.392-1.307-0.093l-3.306,2.479l-5.387-5.387c-0.197-0.197-0.458-0.304-0.746-0.292   c-0.278,0.01-0.54,0.137-0.721,0.348L103,26.297V18H121z"/><path d="M61,29h27c1.103,0,2-0.897,2-2V3c0-1.103-0.897-2-2-2H61c-1.103,0-2,0.897-2,2v24C59,28.103,59.897,29,61,29z M61,3h27   l-0.003,24H61V3z"/><path d="M85,5H64c-0.552,0-1,0.448-1,1v18c0,0.552,0.448,1,1,1h21c0.552,0,1-0.448,1-1V6C86,5.448,85.552,5,85,5z M84,7v6.717   c-1.418-1.097-2.854-1.676-4.289-1.706c-1.608-0.046-2.891,0.632-3.743,1.283c-2.121-1.763-4.189-2.241-5.746-2.267   c-2.007-0.034-3.836,0.683-5.222,1.659V7H84z M65,15.36c0.99-1.189,2.93-2.368,5.188-2.333c2.538,0.042,4.93,1.61,6.935,4.56   L81.042,23H65V15.36z M83.511,23l-4.75-6.562c-0.443-0.652-0.894-1.221-1.346-1.73c0.559-0.384,1.317-0.728,2.255-0.698   c1.377,0.029,2.833,0.841,4.331,2.395V23H83.511z"/><path d="M119.069,68.003c-2.434-0.188-4.864,0.604-7.019,2.195l-1.061-15.343C109.912,47.526,103.468,42,96,42H32   c-7.468,0-13.912,5.526-14.998,12.931l-1.054,15.277c-2.159-1.599-4.596-2.396-7.032-2.205c-4.923,0.375-8.107,5.208-7.923,12.024   c0.182,6.732,2.972,16.32,7.109,24.428c1.763,3.456,3.922,5.173,6.891,5.481v1.074c0,2.044,1.55,3.714,3.533,3.944l-3.431,7.637   c-0.047,0.105-0.076,0.219-0.085,0.334c-0.016,0.208-0.123,2.067,0.943,3.217c0.521,0.562,1.231,0.858,2.054,0.858   c1.307,0,2.927-0.292,3.898-2.556L27.295,115h72.852l4.924,9.385c0.967,2.317,2.604,2.615,3.923,2.615   c0.823,0,1.533-0.297,2.054-0.858c1.066-1.15,0.959-3.009,0.943-3.217c-0.008-0.102-0.031-0.201-0.069-0.296L108.868,115h0.135   c2.2,0,3.99-1.79,3.99-3.99v-1.074c2.969-0.309,5.127-2.026,6.891-5.481c4.137-8.108,6.928-17.697,7.109-24.428   C127.176,73.21,123.992,68.378,119.069,68.003z M32,44h64c6.483,0,12.076,4.792,13.002,11.069l1.159,16.807   c-0.725,0.765-1.402,1.626-2.013,2.588c-1.06,1.668-1.873,3.884-2.428,5.706c-0.56-0.109-1.137-0.17-1.728-0.17H88.411   c0.099-0.097,0.196-0.191,0.297-0.293l7.909-7.94c0.029-0.023,0.063-0.033,0.09-0.06c0.017-0.017,0.022-0.039,0.038-0.057   c1.475-1.273,2.217-2.463,2.254-3.633c0.047-1.48-0.985-2.471-1.814-3.267c-0.162-0.155-0.321-0.308-0.467-0.46   c-0.005-0.006-0.011-0.011-0.016-0.017l-7.976-7.975C87.404,54.881,86.322,54,85.087,54c-0.021,0-0.042,0-0.064,0.001   c-1.318-0.051-2.406,0.864-3.736,2.292l-8.016,8.017c-0.145,0.152-0.304,0.304-0.466,0.459c-0.83,0.796-1.862,1.787-1.815,3.267   c0.038,1.2,0.81,2.419,2.297,3.671l7.995,7.996c0.102,0.104,0.202,0.2,0.302,0.298H65.991c-0.767,0-1.467,0.29-1.998,0.765   C63.462,80.29,62.761,80,61.995,80H46.411c0.099-0.097,0.196-0.191,0.297-0.293l7.909-7.94c0.029-0.023,0.063-0.033,0.09-0.06   c0.017-0.017,0.022-0.039,0.038-0.057c1.475-1.273,2.217-2.463,2.254-3.633c0.047-1.48-0.985-2.471-1.814-3.267   c-0.162-0.155-0.321-0.308-0.467-0.46c-0.005-0.006-0.011-0.011-0.016-0.017l-7.976-7.975C45.404,54.881,44.322,54,43.087,54   c-0.021,0-0.042,0-0.064,0.001c-1.305-0.051-2.406,0.864-3.736,2.292l-8.016,8.017c-0.145,0.152-0.304,0.304-0.466,0.459   c-0.83,0.796-1.862,1.787-1.815,3.267c0.038,1.2,0.81,2.419,2.297,3.671l7.995,7.996c0.102,0.104,0.202,0.2,0.302,0.298H23.993   c-0.591,0-1.168,0.061-1.728,0.17c-0.555-1.822-1.368-4.038-2.428-5.706c-0.607-0.956-1.28-1.812-2-2.573l1.152-16.745   C19.924,48.792,25.517,44,32,44z M23.993,82h18.992c0.005,0,0.01,0,0.016,0s0.01,0,0.016,0h18.979c0.55,0,0.998,0.448,0.998,0.998   v7.004c0,0.55-0.448,0.998-0.998,0.998H18.993c-1.103,0-2-0.897-2-2C16.993,85.14,20.133,82,23.993,82z M54.013,69.599   L41.404,56.99c0.711-0.683,1.205-0.99,1.603-0.99c0.006,0,0.011,0,0.017,0c0.521,0.004,1.143,0.488,2.264,1.688l7.992,7.992   c0.162,0.169,0.339,0.34,0.52,0.513c0.627,0.602,1.219,1.17,1.2,1.761C54.989,68.277,54.79,68.803,54.013,69.599z M39.997,58.411   l12.578,12.578l-6.575,6.597L33.411,64.997L39.997,58.411z M31.99,66.404l12.584,12.584c-0.559,0.509-1.136,0.945-1.574,1.008   c-0.635-0.091-1.556-0.951-2.299-1.704l-8.062-8.057c-1.341-1.132-1.638-1.855-1.65-2.263   C30.972,67.445,31.443,66.936,31.99,66.404z M64.993,82.998c0-0.55,0.448-0.998,0.998-0.998h18.994c0.005,0,0.01,0,0.016,0   s0.01,0,0.016,0h18.977c3.86,0,7,3.14,7,7c0,1.103-0.897,2-2,2H65.991c-0.55,0-0.998-0.448-0.998-0.998V82.998z M96.013,69.599   L83.404,56.99c0.711-0.683,1.205-0.99,1.603-0.99c0.012,0,0.022,0,0.032,0c0.472,0,1.139,0.5,2.248,1.688l7.992,7.992   c0.162,0.169,0.339,0.34,0.52,0.513c0.627,0.602,1.219,1.17,1.2,1.761C96.989,68.277,96.79,68.803,96.013,69.599z M81.997,58.411   l12.578,12.578l-6.575,6.597L75.411,64.997L81.997,58.411z M73.99,66.404l12.584,12.584c-0.559,0.509-1.136,0.945-1.574,1.008   c-0.635-0.091-1.556-0.951-2.299-1.704l-8.062-8.057c-1.341-1.132-1.638-1.855-1.65-2.263   C72.972,67.445,73.443,66.936,73.99,66.404z M20.138,123.504c-0.02,0.036-0.039,0.072-0.054,0.11   c-0.537,1.286-1.199,1.385-2.077,1.385c-0.339,0-0.491-0.115-0.585-0.216c-0.351-0.376-0.423-1.155-0.422-1.553L20.697,115h4.295   L20.138,123.504z M110.002,123.213c0.004,0.424-0.085,1.206-0.421,1.568c-0.094,0.102-0.246,0.218-0.587,0.218   c-0.878,0-1.541-0.099-2.114-1.464L102.405,115h4.308L110.002,123.213z M109.003,113H20.076c-0.002,0-0.004,0-0.006,0h-1.088   c-1.097,0-1.99-0.893-1.99-1.99V110h94v1.01C110.993,112.107,110.1,113,109.003,113z M118.102,103.545   c-1.636,3.206-3.349,4.455-6.109,4.455h-96c-2.761,0-4.474-1.249-6.109-4.455c-3.95-7.741-6.719-17.214-6.891-23.572   c-0.153-5.678,2.289-9.687,6.077-9.976c3.308-0.245,6.716,1.817,9.08,5.539c0.976,1.537,1.739,3.695,2.209,5.238   c-3.155,1.4-5.365,4.558-5.365,8.226c0,2.206,1.794,4,4,4h43.002c0.767,0,1.467-0.29,1.998-0.765C64.523,92.71,65.224,93,65.991,93   h43.002c2.206,0,4-1.794,4-4c0-3.668-2.209-6.826-5.365-8.226c0.47-1.542,1.233-3.701,2.209-5.238   c2.364-3.722,5.762-5.792,9.08-5.539c3.788,0.289,6.229,4.298,6.077,9.976C124.822,86.33,122.052,95.803,118.102,103.545z"/></g></svg>